<svg width="24" height="24" viewBox="0 0 24 24" fill="none" xmlns="http://www.w3.org/2000/svg">
<g clip-path="url(#clip0_2006_336)">
<path d="M23.9713 14.596C24.0686 11.6817 23.9182 8.76442 23.5218 5.87558C23.5375 5.66944 23.5375 5.46241 23.5218 5.25626C23.382 4.587 21.3742 4.25736 20.5251 4.17745C20.4471 4.16897 20.3689 4.19142 20.3073 4.23998C20.2456 4.28854 20.2055 4.35934 20.1955 4.43717C20.1456 5.09644 21.1944 4.43717 22.8026 5.43607C22.7827 6.14601 22.8397 6.85603 22.9724 7.55373C23.2122 9.79127 23.0823 11.3396 22.9724 17.283C21.7855 17.0247 20.5697 16.9239 19.3564 16.9833C17.0942 16.9676 14.8847 17.6668 13.0434 18.9811C13.7226 16.3441 15.3808 15.6348 17.7182 14.7958C17.983 14.7128 18.26 14.6756 18.5373 14.6859C18.5915 14.8084 18.6871 14.908 18.8074 14.967C18.9277 15.026 19.065 15.0407 19.195 15.0084C19.3251 14.9762 19.4396 14.8992 19.5185 14.7908C19.5973 14.6825 19.6355 14.5498 19.6261 14.4162C19.2466 4.3173 19.6261 2.89886 19.4663 1.9599C19.3065 1.02093 18.6272 0.911051 17.6783 0.771206C16.5126 0.648968 15.3355 0.841125 14.2692 1.32771C13.203 1.81429 12.2865 2.57755 11.615 3.53816C11.535 3.70797 11.0656 4.74683 11.0256 4.85671C10.3439 4.33592 9.55623 3.97107 8.71815 3.78788C6.56645 3.31047 4.31375 3.66748 2.41509 4.78678C2.04505 5.02716 1.72825 5.34089 1.48428 5.70856C1.24031 6.07624 1.07434 6.49006 0.996657 6.92443C0.117625 10.4805 -0.411792 11.5294 0.407306 19.091C0.407306 19.4007 0.407306 19.8802 0.706976 20.1698C0.77414 20.2259 0.852761 20.2666 0.937318 20.289C1.02188 20.3114 1.11032 20.3151 1.19644 20.2997V21.0688C1.32629 22.8669 3.71366 21.7681 6.34077 21.5483C8.51837 21.3785 8.75811 21.848 10.686 22.9668C11.4796 23.2652 12.3396 23.3411 13.1732 23.1865C13.8565 23.0839 14.5044 22.8165 15.0612 22.4074C21.6439 17.5627 21.4142 23.2265 22.9525 19.1609C23.0237 18.9752 23.0674 18.78 23.0823 18.5816C23.1598 18.6325 23.2493 18.6622 23.3419 18.6676C23.4345 18.6731 23.5269 18.6541 23.6098 18.6126C23.6927 18.5712 23.7633 18.5087 23.8145 18.4313C23.8657 18.354 23.8957 18.2646 23.9014 18.172C23.9932 16.9823 24.0166 15.7884 23.9713 14.596ZM11.8647 5.38612C14.8614 -0.247673 18.5773 2.2296 18.7371 2.38942C18.817 2.68909 18.3675 9.46163 18.3475 10.0809L18.4374 13.5272C17.3293 13.646 16.2583 13.9954 15.2933 14.5527C14.3282 15.1101 13.4904 15.8632 12.8336 16.7636C12.3342 17.6226 12.504 17.7125 12.4141 17.1432C12.3941 17.0433 11.8247 5.46603 11.8647 5.38612ZM1.07657 9.72134C1.36625 8.61257 1.72585 5.79567 2.6848 5.47602C5.48172 4.53706 8.27864 4.30731 10.8758 5.72575C11.184 6.58326 11.323 7.49237 11.2853 8.4028C11.2853 10.4505 11.3453 16.6337 11.585 18.4917C9.99487 17.7666 8.25688 17.4245 6.51058 17.4928C5.12926 17.6155 3.77849 17.9701 2.51498 18.5416C2.39512 18.5416 1.83573 19.111 1.43617 19.3308C1.43617 19.1909 1.32629 19.0311 1.3163 18.9512C0.996657 16.2342 0.527174 12.6581 1.07657 9.72134ZM21.6139 19.5405C18.7371 18.3918 16.4496 20.02 14.4119 21.4784C13.9764 21.7698 13.4858 21.9689 12.9704 22.0634C12.455 22.1579 11.9257 22.1458 11.4152 22.0278C7.54944 19.2908 6.05109 20.5994 2.55494 21.1288C2.37514 21.1288 2.23529 21.2187 2.14539 21.1288C2.05549 21.0389 1.9556 20.4595 1.72585 20.1299C2.15538 19.9101 2.72475 19.5605 2.8646 19.5206C4.33298 19.0611 5.99116 17.9822 9.58719 18.9811C12.2443 19.6704 12.1044 20.8291 13.0034 20.3396C14.342 19.6204 16.2698 17.4628 22.3032 18.192C22.2427 18.2648 22.2107 18.3571 22.2133 18.4517C21.6239 19.5106 21.6539 19.4406 21.6139 19.5405Z" fill="black"/>
<path d="M3.64374 8.99219C4.64264 8.85234 4.56273 8.36288 5.88128 8.36288C6.61636 8.41622 7.34153 8.56394 8.0389 8.8024C8.22869 8.73247 8.36854 8.65256 8.36854 8.46277C8.36854 8.03324 7.7692 7.59373 6.8602 7.46387C4.23309 6.97441 3.98337 8.23302 3.48392 8.46277C3.43829 8.50035 3.40479 8.55059 3.38764 8.60716C3.37049 8.66373 3.37046 8.72411 3.38754 8.7807C3.40463 8.83729 3.43807 8.88756 3.48365 8.92519C3.52924 8.96283 3.58494 8.98614 3.64374 8.99219Z" fill="black"/>
<path d="M3.64374 12.5183C4.64264 12.3784 4.56273 11.889 5.88127 11.889C6.61636 11.9423 7.34152 12.09 8.0389 12.3285C8.22869 12.2686 8.36853 12.1787 8.36853 11.9889C8.36853 11.5593 7.76919 11.1298 6.8602 10.99C4.23309 10.5005 3.98337 11.7491 3.48392 11.9889C3.43482 11.9838 3.38523 11.991 3.33956 12.0097C3.29389 12.0284 3.25355 12.0581 3.22213 12.0962C3.19071 12.1343 3.16918 12.1795 3.15945 12.2279C3.14971 12.2763 3.15209 12.3263 3.16635 12.3736C3.18062 12.4208 3.20633 12.4638 3.24121 12.4987C3.2761 12.5337 3.31906 12.5594 3.3663 12.5738C3.41353 12.5881 3.46358 12.5905 3.51198 12.5808C3.56038 12.5711 3.60564 12.5497 3.64374 12.5183Z" fill="black"/>
<path d="M3.64375 16.0843C4.64265 15.9445 4.56274 15.455 5.88128 15.455C6.61559 15.5139 7.34006 15.6615 8.03891 15.8945C8.2287 15.8346 8.36854 15.7447 8.36854 15.5649C8.36854 15.1254 7.7692 14.6958 6.8602 14.566C4.2331 14.0765 3.98337 15.3351 3.48392 15.5649C3.43403 15.558 3.38322 15.5638 3.33617 15.5818C3.28913 15.5998 3.24736 15.6293 3.21475 15.6677C3.18213 15.706 3.15971 15.752 3.14956 15.8013C3.1394 15.8507 3.14184 15.9017 3.15665 15.9499C3.17146 15.998 3.19817 16.0416 3.23429 16.0767C3.27042 16.1118 3.3148 16.1372 3.36335 16.1506C3.4119 16.164 3.46303 16.165 3.51204 16.1534C3.56105 16.1418 3.60635 16.118 3.64375 16.0843Z" fill="black"/>
</g>
<defs>
<clipPath id="clip0_2006_336">
<rect width="24" height="24" fill="white"/>
</clipPath>
</defs>
</svg>
