<svg width="20" height="21" viewBox="0 0 20 21" fill="none" xmlns="http://www.w3.org/2000/svg">
<path fill-rule="evenodd" clip-rule="evenodd" d="M18.999 0.57941C18.9451 0.41783 18.8439 0.27618 18.7085 0.17285C18.5731 0.06952 18.4098 0.0093 18.2397 0C17.8986 0.02436 17.5784 0.17377 17.3406 0.41957C16.1147 1.66056 14.989 2.99672 13.9741 4.41552C11.4766 7.73216 8.45957 12.1477 7.11097 14.1857L6.62147 14.9349C5.25947 14.4405 3.84482 14.1053 2.40576 13.9359C1.74186 13.8243 1.06226 13.8481 0.407775 14.0058C0.319835 14.041 0.239965 14.0937 0.172985 14.1607C0.106015 14.2276 0.0533451 14.3075 0.0181751 14.3954C-0.014615 14.5924 -0.00293474 14.7942 0.0523853 14.9861C0.107695 15.178 0.205235 15.355 0.337855 15.5043C1.02212 16.343 1.80346 17.0975 2.66549 17.752C4.56357 19.2805 6.96116 20.749 7.82026 20.8589C7.86496 20.8645 7.91027 20.8611 7.95357 20.849C7.99697 20.8369 8.03747 20.8163 8.07277 20.7884C8.10807 20.7605 8.13747 20.7259 8.15937 20.6866C8.18117 20.6472 8.19497 20.6039 8.19987 20.5592C8.20827 20.468 8.18057 20.3771 8.12267 20.3061C8.06477 20.2351 7.98127 20.1897 7.89017 20.1796C6.42337 19.6122 5.06996 18.7867 3.89425 17.742C2.86779 16.9795 1.93257 16.1013 1.10708 15.1247C1.03023 15.0228 0.960145 14.9161 0.897285 14.805C0.974645 14.7779 1.05527 14.7611 1.13705 14.7551C2.15031 14.7932 3.15586 14.9474 4.134 15.2146C4.9646 15.4038 5.77437 15.6749 6.55157 16.0238C6.63617 16.0744 6.73427 16.0977 6.83257 16.0906C6.93087 16.0834 7.02467 16.0462 7.10097 15.9838C7.18687 15.9336 7.25356 15.8563 7.29076 15.7641V15.7141C7.40066 15.5443 7.62046 15.2046 7.95016 14.7151C9.31876 12.7171 12.3657 8.36156 14.8632 5.07485C15.982 3.59635 16.981 2.32764 17.6803 1.59838C17.7705 1.50409 17.871 1.4203 17.98 1.34863C17.93 1.62835 17.8102 1.99797 17.7203 2.34762C16.8677 5.03354 15.7917 7.64336 14.5035 10.1497C12.9866 13.3517 11.2405 16.4399 9.27877 19.3904C9.25517 19.4219 9.23796 19.4577 9.22826 19.4958C9.21846 19.5339 9.21627 19.5736 9.22187 19.6126C9.22747 19.6515 9.24056 19.689 9.26066 19.7229C9.28066 19.7568 9.30727 19.7863 9.33877 19.81C9.40387 19.8582 9.48547 19.8789 9.56577 19.8677C9.64607 19.8565 9.71877 19.8143 9.76827 19.75C13.0406 15.0309 15.8286 9.99386 18.0899 4.71522C18.5248 3.75313 18.8595 2.74886 19.0889 1.71826C19.1589 1.3373 19.1279 0.94466 18.999 0.57941Z" fill="black"/>
</svg>
