<svg width="24" height="24" viewBox="0 0 24 24" fill="none" xmlns="http://www.w3.org/2000/svg">
<g clip-path="url(#clip0_2007_416)">
<path fill-rule="evenodd" clip-rule="evenodd" d="M8.23 23.4797C8.1291 23.2723 8.0648 23.049 8.04 22.8197C7.93 22.0297 7.8 20.3497 7.73 18.6697C7.6098 17.0767 7.6467 15.4756 7.84 13.8897C7.9189 13.6804 8.0625 13.5017 8.25 13.3797C8.5419 13.2222 8.8683 13.1397 9.2 13.1397C9.63 13.1397 10.05 13.0797 10.48 13.0697C10.91 13.0597 11.34 13.0697 11.77 13.0697L20.29 13.2897L22.41 13.4497C22.6494 13.4251 22.8906 13.4251 23.13 13.4497C23.3156 13.4792 23.4872 13.5667 23.62 13.6997C23.7821 13.9934 23.8648 14.3243 23.86 14.6597C23.95 15.8997 24 18.6097 24 20.7297V23.8297C23.3761 23.9385 22.7403 23.962 22.11 23.8997C19.19 23.8797 12.79 23.8397 10 23.7697H8.76C8.6556 23.764 8.5538 23.735 8.4621 23.6849C8.3704 23.6347 8.2911 23.5646 8.23 23.4797ZM23.23 22.6597C23.23 20.7897 23.11 16.6597 22.96 14.9197C22.96 14.7597 22.96 14.5897 22.9 14.4597C22.77 14.4597 20.25 14.2997 20.25 14.2997H14.25C13.39 14.2997 12.53 14.2997 11.68 14.2397H10.46C10.05 14.2397 9.65 14.2397 9.24 14.3097C9.15 14.3097 8.95 14.3097 8.87 14.3597C8.7694 15.4802 8.7493 16.6064 8.81 17.7297C8.89 19.2897 9 20.9797 9 22.0597C9.0326 22.2751 9.076 22.4887 9.13 22.6997C9.35 22.6997 9.64 22.6997 9.98 22.7497C12.82 22.8897 19.21 23.1397 22.13 23.2497L23.25 23.2897L23.23 22.6597Z" fill="black"/>
<path fill-rule="evenodd" clip-rule="evenodd" d="M15.87 0.449681C16.0636 0.573981 16.2084 0.761182 16.28 0.979682C16.4894 2.59408 16.5463 4.22468 16.45 5.84968C16.45 7.56968 16.31 9.27968 16.2 10.0897C16.1867 10.3262 16.1254 10.5576 16.02 10.7697C15.9575 10.8532 15.8758 10.9204 15.7818 10.9657C15.6878 11.0109 15.5843 11.0329 15.48 11.0297H0.660002C0.584502 11.0426 0.507002 11.0355 0.435102 11.0092C0.363202 10.9829 0.299402 10.9382 0.250002 10.8797C0.0200019 10.6797 0.160002 8.98968 0.160002 7.87968C0.160002 5.75968 0.160002 3.04968 0.270002 1.80968C0.268602 1.48228 0.347602 1.15948 0.500002 0.869681C0.631902 0.733581 0.803402 0.642581 0.990002 0.609681C1.2298 0.595081 1.4702 0.595081 1.71 0.609681L3.83 0.459682L12.35 0.239682H13.64C14.07 0.239682 14.49 0.239682 14.92 0.309682C15.2434 0.278582 15.5694 0.326581 15.87 0.449681ZM3.87 1.36968L1.72 1.46968C1.61 1.46968 1.35 1.56968 1.22 1.51968C1.22 1.64968 1.17 1.81968 1.16 1.98968C1.01 3.76968 0.930001 7.85968 0.890001 9.71968V10.3597H2.03C4.97 10.2897 11.42 10.1297 14.23 10.0297H15.08C15.1377 9.81618 15.1811 9.59898 15.21 9.37968C15.28 8.27968 15.32 6.53968 15.33 4.93968C15.3674 3.79538 15.334 2.64988 15.23 1.50968C15.14 1.57968 14.95 1.43968 14.85 1.43968C14.44 1.43968 14.03 1.37968 13.63 1.36968C13.23 1.35968 12.82 1.36968 12.41 1.36968C11.56 1.36968 10.7 1.36968 9.84 1.41968C7.84 1.36968 5.85 1.33968 3.86 1.36968H3.87Z" fill="black"/>
<path fill-rule="evenodd" clip-rule="evenodd" d="M5.26001 12.7097C5.47421 12.7185 5.68791 12.7385 5.90001 12.7697C6.04541 12.8007 6.18001 12.8697 6.29001 12.9697C6.39781 13.1093 6.46681 13.2749 6.49001 13.4497V15.1597C6.49001 17.6297 6.23001 21.7997 6.19001 22.4497C6.19001 22.4497 6.33001 23.4497 6.04001 23.5397C5.97001 23.5397 4.27001 23.6497 4.18001 23.6497H1.56001C1.30761 23.6799 1.0524 23.6799 0.800005 23.6497C0.606405 23.6273 0.426307 23.5391 0.290007 23.3997C0.143307 23.1365 0.0643052 22.841 0.0600052 22.5397C5.18933e-06 21.4697 5.72205e-06 19.1097 5.72205e-06 16.9797C5.72205e-06 15.3997 0.130006 13.9797 0.180006 13.2797V12.8797C0.190206 12.7719 0.229006 12.6688 0.292206 12.5809C0.355506 12.4931 0.441007 12.4236 0.540007 12.3797C1.06061 12.2557 1.5996 12.2286 2.13 12.2997C3.33 12.3997 4.80001 12.6597 5.26001 12.7097ZM1.35001 13.9797C1.23001 15.6897 1.01001 19.1597 0.980005 21.2997C0.980005 21.9097 0.880006 22.4597 0.910006 22.7797C1.13401 22.8443 1.36721 22.8714 1.60001 22.8597L4.21 22.9797H5.50001V22.4097C5.50001 21.6697 5.60001 16.4097 5.50001 14.2597C5.49621 14.1245 5.47601 13.9902 5.44001 13.8597C5.33001 13.8597 5.21001 13.7997 5.16001 13.7997C4.76001 13.7997 3.59 13.5997 2.55 13.4997C2.11 13.4997 1.69001 13.4097 1.41001 13.4097L1.35001 13.9797Z" fill="black"/>
<path fill-rule="evenodd" clip-rule="evenodd" d="M23.61 0.199814C23.7075 0.245014 23.7902 0.316914 23.8486 0.407114C23.907 0.497414 23.9387 0.602314 23.94 0.709814V4.80981C23.94 6.92981 23.81 9.28981 23.66 10.3798C23.647 10.6806 23.5576 10.9732 23.4 11.2298C23.2565 11.3612 23.0738 11.442 22.88 11.4598C22.6271 11.4814 22.3729 11.4814 22.12 11.4598L19.5 11.3298L18.3 11.2598C18.3 11.2598 17.6 11.2598 17.41 11.0398C17.22 10.8198 17.54 2.74981 17.54 2.74981C17.5422 2.18171 17.5756 1.61421 17.64 1.04981C17.6612 0.873614 17.7383 0.708913 17.86 0.579813C17.9701 0.476013 18.11 0.409512 18.26 0.389812C18.4731 0.376412 18.6869 0.376412 18.9 0.389812C19.36 0.389812 20.84 0.159814 21.98 0.109814C22.5239 0.0299137 23.0782 0.0605138 23.61 0.199814ZM21.61 1.19981C20.61 1.19981 19.39 1.35981 18.99 1.38981C18.99 1.38981 18.82 1.38981 18.71 1.43981C18.6728 1.56741 18.6461 1.69781 18.63 1.82981C18.44 3.96981 18.31 9.23981 18.29 9.97981V10.5398C18.3199 10.5437 18.3501 10.5437 18.38 10.5398H22.19C22.3 10.5398 22.79 10.4898 22.8 10.4298C22.8 10.1198 22.86 9.61981 22.88 9.00981C22.93 6.85981 22.88 3.38981 22.81 1.67981V1.11981C22.51 1.18981 22.09 1.21981 21.64 1.23981L21.61 1.19981Z" fill="black"/>
</g>
<defs>
<clipPath id="clip0_2007_416">
<rect width="24" height="24" fill="white" transform="matrix(0 -1 -1 0 24 24)"/>
</clipPath>
</defs>
</svg>
