<svg width="24" height="24" viewBox="0 0 24 24" fill="none" xmlns="http://www.w3.org/2000/svg">
<g clip-path="url(#clip0_2006_343)">
<path fill-rule="evenodd" clip-rule="evenodd" d="M22.0489 7.07747C21.7166 7.12009 21.3802 7.12009 21.0479 7.07747C20.1971 6.98738 19.2261 6.76717 18.4754 6.6971C16.9239 6.54695 15.3223 6.42684 13.7108 6.39681C12.0992 6.36678 10.5076 6.39681 8.94612 6.50691L4.33162 6.81722C4.37109 6.78669 4.40262 6.7471 4.42353 6.70179C4.44444 6.65648 4.45412 6.6068 4.45174 6.55696C4.57186 6.55696 4.57186 6.05648 4.59188 5.99642C4.66722 5.78407 4.7753 5.58481 4.91219 5.40584C5.02926 5.24998 5.18929 5.1317 5.37264 5.06551C6.16221 4.8134 6.96824 4.61607 7.78499 4.47494C9.01971 4.27022 10.2674 4.15315 11.5186 4.12459C12.9549 4.0245 14.3965 4.0245 15.8328 4.12459C16.7805 4.18029 17.7198 4.33461 18.6356 4.58504C18.7179 4.61669 18.7921 4.66638 18.8527 4.73047C18.9134 4.79456 18.9589 4.87142 18.9859 4.9554C19.069 5.21603 19.126 5.48427 19.1561 5.75618C19.1731 5.84459 19.2226 5.92342 19.2949 5.97714C19.3671 6.03087 19.4569 6.0556 19.5464 6.04647C19.5913 6.04036 19.6346 6.02535 19.6736 6.00231C19.7126 5.97927 19.7466 5.94868 19.7737 5.91232C19.8007 5.87596 19.8202 5.83456 19.831 5.79056C19.8419 5.74656 19.8438 5.70084 19.8367 5.65609C19.8203 5.26274 19.7427 4.87436 19.6065 4.50496C19.539 4.34676 19.4391 4.20446 19.3133 4.08722C19.1874 3.96999 19.0384 3.88042 18.8758 3.8243C17.9032 3.48246 16.8963 3.24751 15.8729 3.12362C15.8729 3.12362 15.2923 1.61215 15.2823 1.60214C15.0139 1.13356 14.6488 0.727501 14.2112 0.410977C13.7198 0.0992998 13.1392 -0.0414449 12.5596 0.0105873C12.037 0.0518631 11.5238 0.173405 11.0382 0.370938C10.5314 0.592311 10.0876 0.936302 9.7469 1.37191C9.4478 1.95462 9.22572 2.57374 9.08625 3.21371C8.80598 3.21371 8.50569 3.29378 8.22541 3.35384C7.14461 3.57284 6.09075 3.90846 5.08235 4.35482C4.83536 4.46924 4.61663 4.63671 4.44173 4.8453C4.21778 5.1444 4.05456 5.48445 3.96126 5.84627C3.901 6.07692 3.85421 6.31087 3.82112 6.54695C3.81676 6.59731 3.82249 6.64804 3.83795 6.69616C3.85342 6.74428 3.87833 6.78884 3.91121 6.82723L3.98128 6.84725C0.437829 7.09749 1.70907 7.67805 1.97933 7.66805C2.20434 7.65544 2.42833 7.62869 2.64998 7.58797H8.98616C10.2874 7.58797 11.6087 7.52791 12.94 7.5179H15.5826C16.5836 7.5179 17.4744 7.5179 18.4053 7.57796C19.146 7.57796 20.127 7.76814 20.9778 7.81819C21.3768 7.86565 21.78 7.86565 22.179 7.81819C22.2679 7.80346 22.3473 7.7541 22.3998 7.68092C22.4524 7.60775 22.4737 7.51673 22.4593 7.42781C22.46 7.37628 22.4494 7.32522 22.4282 7.27827C22.407 7.23131 22.3756 7.18962 22.3364 7.15616C22.2972 7.1227 22.2512 7.0983 22.2014 7.0847C22.1517 7.0711 22.0996 7.06863 22.0489 7.07747ZM10.4576 2.01254C10.6837 1.8101 10.9449 1.65066 11.2283 1.54208C11.6883 1.35482 12.1746 1.24001 12.6697 1.20175C13.0109 1.14442 13.3614 1.197 13.6707 1.35189C14.0137 1.5501 14.3187 1.80768 14.5716 2.11263C14.6216 2.1827 14.8419 2.70321 15.012 3.05355C13.8327 2.96973 12.6495 2.95636 11.4686 3.01351C10.9881 3.01351 10.4976 3.01351 9.98713 3.08358C10.2174 2.71322 10.3675 2.0726 10.4576 2.01254Z" fill="black"/>
<path fill-rule="evenodd" clip-rule="evenodd" d="M20.6475 8.65902C20.5897 8.60336 20.5125 8.57227 20.4323 8.57227C20.352 8.57227 20.2749 8.60336 20.2171 8.65902C20.1764 8.7141 20.1545 8.78076 20.1545 8.84921C20.1545 8.91766 20.1764 8.9843 20.2171 9.03938V9.40975C20.1257 11.0083 19.9352 12.5995 19.6465 14.1744C19.3062 16.2364 18.8958 18.3384 18.5855 19.4095C18.4453 19.9 18.3453 20.4105 18.1751 20.8909C18.0842 21.1709 17.949 21.4345 17.7747 21.6717C17.3654 22.1626 16.8001 22.4983 16.1731 22.6226C15.1425 22.8769 14.0753 22.948 13.0201 22.8328C11.5987 22.6827 10.0171 22.8328 8.58575 22.6426C8.02493 22.5669 7.48239 22.3906 6.98419 22.1221C6.69266 21.9109 6.46984 21.6185 6.34356 21.2813C6.06914 20.6811 5.87074 20.0489 5.75299 19.3995C5.60284 18.5687 5.42267 17.5277 5.24249 16.3966C4.82208 13.734 4.38165 10.691 4.18146 9.38973C4.16664 9.29949 4.11807 9.21825 4.04558 9.16249C3.97309 9.10673 3.88211 9.08061 3.79108 9.08944C3.70156 9.10425 3.62127 9.15322 3.56713 9.22603C3.51299 9.29885 3.48921 9.38983 3.50079 9.47982C3.66095 10.8011 4.01129 13.8441 4.36163 16.4866C4.50177 17.6177 4.64191 18.6788 4.77203 19.4896C4.88695 20.2324 5.09199 20.9585 5.38263 21.6517C5.57747 22.2037 5.93306 22.6848 6.40362 23.033C7.02121 23.386 7.70083 23.6171 8.40557 23.7137C9.86699 23.9639 11.4085 23.7838 12.8999 23.9439C14.1043 24.072 15.3218 23.9804 16.4934 23.6736C17.3575 23.4589 18.1254 22.9623 18.6756 22.2623C18.8958 21.9242 19.0676 21.5569 19.1861 21.1712C19.3462 20.6707 19.4363 20.1702 19.5664 19.6197C20.0721 17.1291 20.443 14.613 20.6775 12.0824C20.8023 11.0865 20.8525 10.0828 20.8277 9.07942C20.8087 8.92504 20.7462 8.77926 20.6475 8.65902Z" fill="black"/>
<path fill-rule="evenodd" clip-rule="evenodd" d="M9.25638 16.1563C9.39652 16.9972 9.56668 17.7379 9.67679 18.2684C9.74686 18.6087 9.79691 18.859 9.81693 18.9791C9.87698 19.2794 10.1372 19.2393 10.3274 19.1493C10.3597 19.1448 10.3906 19.1336 10.4182 19.1164C10.4458 19.0991 10.4695 19.0762 10.4876 19.0492V18.9691V18.2584C10.4876 17.7179 10.4876 16.9571 10.3775 16.1063C10.3775 15.6458 10.2874 15.1654 10.2173 14.6849C10.2173 14.4447 10.1573 14.2044 10.1072 13.9742C9.90701 12.8531 9.64676 11.8321 9.49661 11.1615C9.49136 11.122 9.47838 11.084 9.45843 11.0496C9.43848 11.0152 9.41195 10.985 9.38035 10.9609C9.34875 10.9367 9.31269 10.919 9.27425 10.9088C9.2358 10.8985 9.19572 10.896 9.15628 10.9012C9.11685 10.9065 9.07883 10.9194 9.04441 10.9394C9.00999 10.9593 8.97984 10.9859 8.95567 11.0175C8.9315 11.0491 8.9138 11.0851 8.90357 11.1236C8.89333 11.162 8.89077 11.2021 8.89603 11.2415C8.89603 11.9222 8.89603 12.9832 9.00614 14.1143C9.00614 14.3546 9.00614 14.5848 9.0762 14.825C9.10623 15.2154 9.1763 15.6959 9.25638 16.1563Z" fill="black"/>
<path fill-rule="evenodd" clip-rule="evenodd" d="M14.8418 18.969C14.9321 18.969 15.0187 18.9332 15.0825 18.8693C15.1463 18.8055 15.1822 18.7189 15.1822 18.6287C15.2322 18.0181 15.4024 17.0872 15.5125 16.0662C15.5826 15.5056 15.6426 14.9151 15.6626 14.3545C15.7227 13.0032 15.6626 11.8321 15.6626 11.4417C15.6654 11.361 15.6366 11.2825 15.5824 11.2227C15.5283 11.1629 15.4529 11.1265 15.3724 11.1214C15.3329 11.1187 15.2933 11.1238 15.2558 11.1364C15.2183 11.149 15.1837 11.1689 15.154 11.195C15.1242 11.221 15.0999 11.2527 15.0824 11.2881C15.0649 11.3236 15.0546 11.3622 15.052 11.4016C14.992 11.752 14.7618 12.7229 14.5916 13.9041C14.5415 14.2444 14.5115 14.6148 14.4815 14.9751C14.4515 15.3355 14.4815 15.7058 14.4815 16.0662C14.4815 17.0672 14.4815 18.0181 14.5616 18.6287C14.5603 18.7094 14.5878 18.788 14.6391 18.8504C14.6905 18.9127 14.7623 18.9548 14.8418 18.969Z" fill="black"/>
</g>
<defs>
<clipPath id="clip0_2006_343">
<rect width="24" height="24" fill="white"/>
</clipPath>
</defs>
</svg>
