<svg width="24" height="24" viewBox="0 0 24 24" fill="none" xmlns="http://www.w3.org/2000/svg">
<g clip-path="url(#clip0_2006_321)">
<path fill-rule="evenodd" clip-rule="evenodd" d="M23.9389 14.4606C23.9389 12.5581 24.009 10.2852 23.999 8.08229C23.999 6.57032 23.9389 5.07838 23.8288 3.79671C23.8238 2.96352 23.723 2.13366 23.5284 1.32349C23.4051 0.865127 23.1114 0.471153 22.7073 0.222052C22.4538 0.0900652 22.1721 0.0213582 21.8863 0.0217916C21.3788 0.0351057 20.8733 0.0886768 20.3743 0.182C19.4044 0.334845 18.4563 0.603791 17.5506 0.983044C16.2165 1.51732 14.9414 2.18845 13.7457 2.98565C13.265 3.30607 12.6643 3.89684 12.1135 4.29736C11.9638 4.42361 11.7948 4.52502 11.6129 4.59775L11.3926 4.42753C10.9821 4.08709 10.3913 3.50633 9.84058 3.0257C9.54891 2.75299 9.23768 2.50199 8.90936 2.27473C7.70185 1.58349 6.3598 1.16004 4.97424 1.03311C3.60534 0.901732 2.22443 0.979388 0.8789 1.26341C0.799759 1.28031 0.730348 1.32745 0.685458 1.39479C0.640568 1.46212 0.62375 1.54432 0.638587 1.62388C0.649304 1.69122 0.685069 1.75202 0.738718 1.7941C0.665466 1.85401 0.618712 1.94033 0.608548 2.03441C0.528444 2.55509 0.498405 3.08578 0.478379 3.60646V7.23118L0.0578306 13.8698C-0.0192769 14.766 -0.0192769 15.6672 0.0578306 16.5633C0.103222 17.2547 0.386217 17.9091 0.858874 18.4158C1.14642 18.6491 1.49302 18.7981 1.86018 18.8463C2.491 18.9765 3.29204 18.9464 3.73262 19.0366C4.34324 19.1708 4.93995 19.3618 5.51494 19.6073C6.10322 19.8539 6.67809 20.1313 7.23718 20.4384C7.78933 20.7397 8.31226 21.0916 8.79922 21.4898C9.28144 21.8903 9.72405 22.3363 10.1209 22.8215C10.3632 23.1491 10.6421 23.4481 10.952 23.7127C11.068 23.8096 11.2021 23.8825 11.3465 23.9272C11.4908 23.9719 11.6427 23.9874 11.7931 23.973C12.1389 23.8778 12.4489 23.6828 12.6843 23.4123C13.1048 22.9817 13.5254 22.3409 13.7657 22.0805C14.1252 21.6725 14.5358 21.3124 14.9873 21.0091C15.4893 20.6967 16.023 20.4382 16.5794 20.2381C17.1632 20.0258 17.7624 19.8584 18.3717 19.7375C19.3229 19.5472 20.2842 19.4371 21.2254 19.3269C21.7777 19.3098 22.3273 19.2428 22.8675 19.1267C23.1883 19.0396 23.4792 18.8665 23.7086 18.626C23.8114 18.4881 23.8769 18.326 23.8989 18.1554C23.9185 17.8787 23.9185 17.601 23.8989 17.3243L23.9389 14.4606ZM10.8519 22.1406C10.4089 21.6072 9.91236 21.1207 9.36996 20.6887C8.83189 20.2545 8.25156 19.8754 7.63771 19.5572C7.03692 19.2468 6.43614 18.9464 5.80532 18.6961C5.15736 18.4381 4.48699 18.2403 3.80271 18.1054C3.45225 18.0052 2.79139 18.0052 2.19061 18.0052C1.92362 18.0005 1.66337 17.9207 1.43963 17.7749C1.11429 17.4206 0.92303 16.9637 0.898926 16.4832C0.823068 15.6405 0.823068 14.7927 0.898926 13.9499L1.1893 7.28125V3.65653C1.1893 3.14586 1.1893 2.65522 1.26941 2.13454C1.27432 2.08333 1.2679 2.03166 1.25059 1.9832C1.23329 1.93475 1.20553 1.8907 1.16928 1.85418C2.39505 1.63298 3.64661 1.5925 4.88412 1.73402C6.17249 1.86222 7.41685 2.27245 8.52887 2.93559C9.02952 3.24599 10.3713 4.64782 11.0021 5.1685C11.0623 5.21634 11.1259 5.25984 11.1923 5.29867C11.3418 5.63465 11.4332 5.99352 11.4627 6.36005C11.503 6.94679 11.503 7.5356 11.4627 8.12235C11.4627 8.67306 11.3926 9.20375 11.3425 9.74446C11.2324 11.0161 11.1022 12.2778 10.952 13.5394C10.8585 14.5379 10.8151 15.5405 10.8219 16.5433C10.8458 18.0461 10.9461 19.5466 11.1222 21.0392L11.3726 22.5211C11.1908 22.4059 11.0168 22.2788 10.8519 22.1406ZM22.7874 14.4506V17.8751C22.6678 17.947 22.5351 17.9947 22.3969 18.0152C21.9752 18.0734 21.5507 18.1101 21.1253 18.1254C20.124 18.2455 19.1227 18.3557 18.1714 18.5559C17.49 18.6891 16.8203 18.8766 16.1688 19.1167C15.5398 19.3529 14.936 19.6514 14.3665 20.0078C13.7977 20.3801 13.2794 20.8244 12.8245 21.3296C12.6342 21.5398 12.3438 21.9804 12.0234 22.3309L11.9133 21.0091C11.9133 19.7976 11.8532 18.5559 11.9133 17.3243C11.9734 16.0927 11.9834 14.8711 12.1135 13.6696C12.1836 12.7484 12.2637 11.8372 12.3038 10.926C12.3438 10.0148 12.3038 9.0836 12.3038 8.15238C12.3093 7.52912 12.2657 6.9064 12.1736 6.28996C12.1217 5.98382 12.0343 5.68475 11.9133 5.3988C12.0684 5.34751 12.2164 5.27686 12.3538 5.18852C12.9546 4.82805 13.6856 4.10711 14.2463 3.75666C15.2038 3.13273 16.2081 2.58372 17.2502 2.11452C18.2823 1.65868 19.3751 1.35512 20.4945 1.21334C20.8249 1.21334 21.2655 1.08317 21.676 1.07316C21.8608 1.05963 22.0462 1.09053 22.2167 1.16328C22.3322 1.26379 22.4263 1.3865 22.4934 1.52412C22.5604 1.66173 22.5992 1.81144 22.6072 1.96432C22.71 2.62686 22.7602 3.29648 22.7574 3.96693C22.8475 5.23859 22.8675 6.69048 22.8675 8.17241C22.8675 10.2852 22.8075 12.5481 22.7874 14.4506Z" fill="black"/>
<path fill-rule="evenodd" clip-rule="evenodd" d="M14.9873 6.99083C15.1757 6.87184 15.3732 6.76804 15.5781 6.68043C15.6234 6.66859 15.666 6.64794 15.7034 6.61965C15.7408 6.59135 15.7722 6.55597 15.7959 6.51553C15.8197 6.47508 15.8352 6.43036 15.8416 6.38392C15.848 6.33748 15.8452 6.29023 15.8334 6.24486C15.8216 6.1995 15.8009 6.15691 15.7726 6.11952C15.7443 6.08214 15.7089 6.05069 15.6685 6.02698C15.6281 6.00327 15.5833 5.98776 15.5369 5.98134C15.4905 5.97491 15.4432 5.97769 15.3978 5.98953C15.1479 6.01181 14.9056 6.08689 14.6869 6.20981C14.5067 6.30994 14.3665 6.47015 14.1963 6.56027C14.1206 6.58816 14.0591 6.64496 14.0253 6.7182C13.9915 6.79143 13.9882 6.87509 14.016 6.95078C14.0439 7.02647 14.1007 7.08797 14.174 7.12177C14.2472 7.15557 14.3309 7.1589 14.4065 7.13101C14.6046 7.10541 14.7993 7.05841 14.9873 6.99083Z" fill="black"/>
<path fill-rule="evenodd" clip-rule="evenodd" d="M14.5767 10.5155C14.7598 10.4853 14.9382 10.4314 15.1074 10.3553C15.297 10.2414 15.4945 10.141 15.6982 10.0549C15.7452 10.049 15.7904 10.0334 15.831 10.0091C15.8715 9.98482 15.9066 9.95231 15.9339 9.91368C15.9613 9.87505 15.9802 9.83115 15.9896 9.78478C15.9991 9.73841 15.9987 9.69059 15.9886 9.64437C15.9693 9.55651 15.9169 9.47945 15.8424 9.42912C15.7678 9.3788 15.6768 9.35907 15.5881 9.37401C15.3356 9.39941 15.0906 9.47426 14.8671 9.5943C14.6869 9.69443 14.5467 9.85464 14.3765 9.94476C14.3321 9.95364 14.2903 9.9721 14.2538 9.99885C14.2173 10.0256 14.1872 10.06 14.1654 10.0996C14.1436 10.1393 14.1307 10.1832 14.1277 10.2283C14.1247 10.2735 14.1315 10.3187 14.1478 10.3609C14.1641 10.4031 14.1894 10.4412 14.222 10.4726C14.2546 10.504 14.2936 10.5279 14.3363 10.5426C14.3791 10.5573 14.4246 10.5625 14.4696 10.5579C14.5145 10.5532 14.558 10.5387 14.5968 10.5155H14.5767Z" fill="black"/>
<path fill-rule="evenodd" clip-rule="evenodd" d="M14.6669 13.7497C14.8521 13.7149 15.0333 13.6612 15.2076 13.5895C15.3949 13.4687 15.5926 13.3648 15.7984 13.2791C15.8424 13.2706 15.8843 13.2534 15.9218 13.2287C15.9592 13.2039 15.9914 13.172 16.0165 13.1349C16.0416 13.0977 16.0591 13.0559 16.0681 13.0119C16.077 12.9679 16.0773 12.9226 16.0687 12.8786C16.0602 12.8345 16.043 12.7926 16.0183 12.7552C15.9935 12.7178 15.9616 12.6856 15.9244 12.6605C15.8872 12.6354 15.8455 12.6178 15.8015 12.6089C15.7575 12.5999 15.7122 12.5997 15.6682 12.6082C15.4164 12.6303 15.1714 12.7017 14.9472 12.8185C14.767 12.9287 14.6268 13.0789 14.4566 13.179C14.4188 13.1924 14.3841 13.2132 14.3545 13.2402C14.3249 13.2672 14.301 13.2999 14.2842 13.3363C14.2674 13.3726 14.258 13.412 14.2567 13.4521C14.2554 13.4921 14.262 13.5321 14.2764 13.5695C14.3056 13.6442 14.3626 13.7046 14.4354 13.7382C14.5081 13.7718 14.5911 13.7759 14.6669 13.7497Z" fill="black"/>
<path fill-rule="evenodd" clip-rule="evenodd" d="M15.7182 16.0527C15.468 16.0734 15.2254 16.1486 15.0073 16.2729C14.8271 16.3731 14.6869 16.5333 14.5167 16.6234C14.441 16.6513 14.3795 16.7081 14.3457 16.7813C14.3119 16.8546 14.3086 16.9382 14.3364 17.0139C14.3643 17.0896 14.4211 17.1511 14.4944 17.1849C14.5676 17.2187 14.6513 17.222 14.7269 17.1941C14.9122 17.1593 15.0934 17.1056 15.2677 17.0339C15.456 16.9149 15.6536 16.8111 15.8584 16.7235C15.9025 16.7143 15.9443 16.6965 15.9815 16.6712C16.0186 16.6458 16.0504 16.6134 16.0751 16.5757C16.0997 16.5381 16.1167 16.4959 16.1251 16.4517C16.1334 16.4075 16.133 16.3621 16.1238 16.318C16.1146 16.274 16.0968 16.2321 16.0714 16.195C16.0461 16.1578 16.0136 16.126 15.976 16.1013C15.9383 16.0767 15.8962 16.0597 15.8519 16.0514C15.8077 16.043 15.7623 16.0435 15.7182 16.0527Z" fill="black"/>
<path fill-rule="evenodd" clip-rule="evenodd" d="M18.8323 12.5681C19.0186 12.538 19.2003 12.4842 19.373 12.4079C19.5615 12.292 19.7591 12.1916 19.9638 12.1075C20.0134 12.1038 20.0617 12.0895 20.1054 12.0657C20.1492 12.0418 20.1873 12.0089 20.2173 11.9691C20.2473 11.9294 20.2685 11.8837 20.2794 11.8351C20.2904 11.7865 20.2908 11.7362 20.2808 11.6874C20.2707 11.6386 20.2504 11.5925 20.2212 11.5522C20.1919 11.5119 20.1544 11.4783 20.1111 11.4536C20.0679 11.4289 20.0199 11.4138 19.9703 11.4091C19.9207 11.4045 19.8707 11.4104 19.8236 11.4266C19.5744 11.4523 19.3327 11.5272 19.1126 11.6469C18.9324 11.7471 18.7922 11.9073 18.622 11.9974C18.5839 12.0118 18.5489 12.0336 18.5192 12.0616C18.4895 12.0896 18.4656 12.1231 18.4489 12.1603C18.4321 12.1975 18.4229 12.2376 18.4217 12.2784C18.4205 12.3192 18.4273 12.3598 18.4418 12.3979C18.4729 12.4707 18.5306 12.5289 18.6032 12.5606C18.6758 12.5922 18.7578 12.5949 18.8323 12.5681Z" fill="black"/>
<path fill-rule="evenodd" clip-rule="evenodd" d="M19.9037 15.0013C19.6512 15.0267 19.4063 15.1016 19.1827 15.2216C19.0025 15.3218 18.8623 15.482 18.6921 15.5821C18.6522 15.5935 18.6152 15.613 18.5832 15.6395C18.5513 15.6659 18.5251 15.6987 18.5065 15.7357C18.4878 15.7728 18.477 15.8133 18.4748 15.8547C18.4726 15.8961 18.4789 15.9375 18.4935 15.9764C18.5081 16.0152 18.5305 16.0506 18.5594 16.0803C18.5883 16.11 18.6231 16.1335 18.6615 16.1491C18.6999 16.1647 18.7411 16.1723 18.7826 16.1712C18.824 16.1701 18.8648 16.1604 18.9024 16.1428C19.09 16.1188 19.2726 16.0647 19.4431 15.9826C19.6327 15.8687 19.8301 15.7683 20.0338 15.6822C20.079 15.6739 20.122 15.6566 20.1603 15.6312C20.1986 15.6058 20.2314 15.573 20.2566 15.5346C20.2819 15.4963 20.2991 15.4532 20.3073 15.408C20.3155 15.3628 20.3144 15.3165 20.3042 15.2717C20.2849 15.1838 20.2325 15.1068 20.158 15.0564C20.0834 15.0061 19.9924 14.9864 19.9037 15.0013Z" fill="black"/>
<path fill-rule="evenodd" clip-rule="evenodd" d="M19.1427 5.64913C19.3312 5.53324 19.5288 5.43279 19.7335 5.34874C19.814 5.32104 19.8818 5.26494 19.924 5.19094C19.9662 5.11694 19.98 5.0301 19.9628 4.94666C19.9456 4.86322 19.8986 4.78889 19.8306 4.73758C19.7626 4.68626 19.6782 4.66148 19.5933 4.66785C19.3441 4.6935 19.1024 4.76838 18.8824 4.88814C18.7021 4.98827 18.5619 5.14848 18.3917 5.24861C18.3539 5.262 18.3192 5.28281 18.2896 5.30981C18.26 5.33682 18.2361 5.36948 18.2193 5.40588C18.2025 5.44227 18.1932 5.48165 18.1918 5.52171C18.1905 5.56177 18.1972 5.60169 18.2115 5.63912C18.2426 5.71195 18.3003 5.77015 18.3729 5.80179C18.4455 5.83344 18.5275 5.83614 18.602 5.80934C18.7894 5.78385 18.9717 5.72982 19.1427 5.64913Z" fill="black"/>
<path fill-rule="evenodd" clip-rule="evenodd" d="M4.90412 4.17726C4.60508 4.07342 4.28413 4.04926 3.97291 4.10717C3.89303 4.10951 3.81691 4.14162 3.75948 4.1972C3.70205 4.25277 3.66747 4.3278 3.66251 4.40756C3.66246 4.48818 3.69379 4.56565 3.74985 4.62359C3.80592 4.68152 3.88232 4.71537 3.9629 4.71797C4.12864 4.75305 4.28988 4.80679 4.44352 4.87818C4.68458 4.96096 4.91355 5.07545 5.12441 5.21862C5.15991 5.24623 5.20051 5.26658 5.24388 5.27851C5.28724 5.29043 5.33254 5.2937 5.37717 5.28812C5.4218 5.28254 5.46489 5.26823 5.50399 5.24599C5.54309 5.22376 5.57742 5.19404 5.60504 5.15854C5.63265 5.12304 5.653 5.08244 5.66493 5.03908C5.67685 4.99571 5.68012 4.95042 5.67454 4.90579C5.66896 4.86116 5.65464 4.81806 5.63241 4.77896C5.61018 4.73986 5.58046 4.70553 5.54496 4.67792C5.35935 4.47799 5.14301 4.30898 4.90412 4.17726Z" fill="black"/>
<path fill-rule="evenodd" clip-rule="evenodd" d="M8.66905 5.98956C8.42548 5.88346 8.16364 5.82565 7.89804 5.81934C7.85925 5.81079 7.81916 5.80997 7.78005 5.81692C7.74094 5.82387 7.70358 5.83845 7.67011 5.85984C7.60251 5.90303 7.55484 5.9713 7.53757 6.04964C7.52031 6.12798 7.53488 6.20997 7.57807 6.27757C7.62126 6.34517 7.68953 6.39285 7.76787 6.41011L8.82926 6.99087C8.89477 7.05508 8.98284 7.09105 9.07458 7.09105C9.16631 7.09105 9.25439 7.05508 9.3199 6.99087C9.38183 6.92419 9.41625 6.83655 9.41625 6.74555C9.41625 6.65454 9.38183 6.56691 9.3199 6.50023C9.1428 6.28456 8.92066 6.11026 8.66905 5.98956Z" fill="black"/>
<path fill-rule="evenodd" clip-rule="evenodd" d="M7.86798 9.30389C7.70429 9.26165 7.53633 9.23813 7.36733 9.2338C7.29519 9.22365 7.22177 9.23921 7.15994 9.27774C7.09811 9.31627 7.05181 9.37532 7.02913 9.44455C7.00645 9.51378 7.00884 9.58878 7.03589 9.65643C7.06294 9.72407 7.11292 9.78005 7.17708 9.81456C7.30561 9.90268 7.43936 9.98293 7.5776 10.0549C7.69689 10.0873 7.81396 10.1275 7.92806 10.175C8.00171 10.2277 8.09289 10.2498 8.18248 10.2367C8.27208 10.2237 8.35314 10.1764 8.40869 10.1049C8.43656 10.0695 8.45714 10.029 8.46921 9.98556C8.48129 9.94215 8.48463 9.89678 8.47904 9.85207C8.47345 9.80736 8.45905 9.76421 8.43666 9.72511C8.41427 9.68602 8.38434 9.65175 8.34861 9.62431C8.21257 9.48507 8.04884 9.37591 7.86798 9.30389Z" fill="black"/>
<path fill-rule="evenodd" clip-rule="evenodd" d="M4.59376 7.99215C4.4543 7.91403 4.31056 7.84382 4.1632 7.78187C3.99514 7.74647 3.82422 7.72636 3.65254 7.7218C3.61011 7.7115 3.56595 7.71057 3.52313 7.71908C3.48031 7.72758 3.43986 7.74532 3.4046 7.77106C3.36933 7.79679 3.3401 7.8299 3.31894 7.86808C3.29777 7.90627 3.28519 7.94861 3.28205 7.99215C3.26982 8.0296 3.26534 8.06915 3.26887 8.10839C3.27241 8.14762 3.2839 8.18573 3.30263 8.22039C3.32137 8.25505 3.34696 8.28553 3.37785 8.30999C3.40874 8.33444 3.44428 8.35235 3.48231 8.36263C3.61808 8.45023 3.75846 8.53045 3.90286 8.60294C4.0629 8.65166 4.22717 8.68518 4.3935 8.70308C4.48113 8.72823 4.5751 8.71825 4.65549 8.67525C4.73588 8.63225 4.79634 8.55962 4.82406 8.47277C4.84645 8.4267 4.85814 8.37616 4.85828 8.32493C4.85842 8.2737 4.84699 8.2231 4.82486 8.17691C4.80272 8.13071 4.77044 8.0901 4.73043 8.05811C4.69042 8.02612 4.6437 8.00357 4.59376 7.99215Z" fill="black"/>
<path fill-rule="evenodd" clip-rule="evenodd" d="M8.1584 12.9987C7.94196 12.8372 7.70657 12.7027 7.45749 12.5982C7.2502 12.5481 7.03395 12.5481 6.82667 12.5982C6.747 12.5982 6.67059 12.6299 6.61426 12.6862C6.55792 12.7425 6.52628 12.8189 6.52628 12.8986C6.52628 12.9783 6.55792 13.0547 6.61426 13.111C6.67059 13.1673 6.747 13.199 6.82667 13.199L7.82797 13.5995C7.86742 13.6206 7.91063 13.6336 7.95512 13.638C7.99962 13.6423 8.04453 13.6378 8.0873 13.6248C8.13007 13.6118 8.16986 13.5905 8.2044 13.5621C8.23893 13.5337 8.26753 13.4988 8.28857 13.4593C8.30961 13.4199 8.32267 13.3767 8.32701 13.3322C8.33136 13.2877 8.32689 13.2428 8.31387 13.2C8.30086 13.1572 8.27954 13.1174 8.25115 13.0829C8.22275 13.0484 8.18784 13.0198 8.14839 12.9987H8.1584Z" fill="black"/>
<path fill-rule="evenodd" clip-rule="evenodd" d="M4.56371 15.2116C4.33341 15.0698 4.08385 14.9618 3.82275 14.8912C3.54799 14.841 3.26642 14.841 2.99167 14.8912C2.92014 14.9042 2.85546 14.9419 2.80888 14.9977C2.7623 15.0535 2.73679 15.1239 2.73679 15.1966C2.73679 15.2693 2.7623 15.3397 2.80888 15.3955C2.85546 15.4513 2.92014 15.489 2.99167 15.502L4.27334 15.8424C4.3141 15.8609 4.35809 15.8711 4.4028 15.8725C4.44751 15.8739 4.49206 15.8665 4.5339 15.8507C4.57575 15.8349 4.61407 15.811 4.64667 15.7804C4.67928 15.7498 4.70553 15.713 4.72392 15.6722C4.76226 15.5897 4.76697 15.4955 4.73707 15.4095C4.70717 15.3235 4.645 15.2526 4.56371 15.2116Z" fill="black"/>
</g>
<defs>
<clipPath id="clip0_2006_321">
<rect width="24" height="24" fill="white"/>
</clipPath>
</defs>
</svg>
