<svg width="24" height="24" viewBox="0 0 24 24" fill="none" xmlns="http://www.w3.org/2000/svg">
<g clip-path="url(#clip0_2006_341)">
<path fill-rule="evenodd" clip-rule="evenodd" d="M23.1779 6.24465C23.4977 5.77498 23.7722 5.27609 23.9979 4.75465C24.0067 4.61781 23.9873 4.48061 23.9409 4.35159C23.8944 4.22256 23.8219 4.10447 23.7279 4.00465C22.9044 3.1379 21.989 2.36335 20.9979 1.69465C20.5579 1.3521 20.06 1.0913 19.5279 0.924653C19.4198 0.906176 19.3088 0.915784 19.2055 0.952557C19.1022 0.98933 19.01 1.05203 18.9379 1.13465C18.6279 1.49465 17.9379 2.07465 17.1979 2.78465C16.9479 3.02465 16.6879 3.28465 16.4479 3.56465C14.9979 5.13465 13.4879 7.00465 12.7679 7.82465C11.2479 6.24465 8.04792 2.82465 6.45792 1.52465C6.14478 1.24458 5.77205 1.03941 5.36792 0.924653C5.27708 0.901699 5.1826 0.89695 5.08992 0.910681C4.99724 0.924411 4.9082 0.956349 4.82792 1.00465C4.73792 1.11465 0.997917 3.67465 0.197917 5.11465C0.0884807 5.28167 0.0220773 5.47317 0.00462889 5.67208C-0.0128196 5.871 0.0192292 6.07114 0.0979173 6.25465C0.276191 6.5591 0.498608 6.83543 0.757917 7.07465C1.07008 7.40047 1.4042 7.70451 1.75792 7.98465C2.00792 8.17465 2.66792 8.76465 3.43792 9.48465C4.68792 10.6147 6.19792 12.0047 6.93792 12.7547C5.93792 13.6147 3.60792 15.6347 2.22792 17.0147C1.81127 17.4022 1.43899 17.8349 1.11792 18.3047C1.03725 18.4339 0.992389 18.5823 0.987917 18.7347C1.11708 19.1638 1.35878 19.5505 1.68792 19.8547C2.61265 20.7928 3.58387 21.6839 4.59792 22.5247C4.74792 22.6547 5.00792 23.2147 5.50792 23.0747C5.70241 22.9739 5.88377 22.8497 6.04792 22.7047C6.32792 22.5047 7.91792 21.1947 9.56792 19.7647C10.7279 18.7647 11.9079 17.7047 12.6879 16.9347L13.0979 17.2747C14.7779 18.6647 18.9479 22.2247 19.0979 22.5047C19.1181 22.5449 19.146 22.5808 19.1801 22.6101C19.2142 22.6395 19.2538 22.6618 19.2966 22.6758C19.3394 22.6897 19.3845 22.695 19.4294 22.6914C19.4742 22.6878 19.5179 22.6753 19.5579 22.6547L19.8879 22.4547C20.4779 22.0547 21.7479 21.0947 22.4979 20.4547C22.5269 20.4258 22.55 20.3916 22.5657 20.3538C22.5814 20.316 22.5895 20.2756 22.5895 20.2347C22.5895 20.1938 22.5814 20.1533 22.5657 20.1155C22.55 20.0777 22.5269 20.0435 22.4979 20.0147C22.47 19.9859 22.4365 19.9631 22.3996 19.9475C22.3627 19.9319 22.323 19.9239 22.2829 19.9239C22.2428 19.9239 22.2032 19.9319 22.1662 19.9475C22.1293 19.9631 22.0959 19.9859 22.0679 20.0147C21.3279 20.6347 20.0679 21.5647 19.4879 21.9447H19.4279C18.4979 21.0047 15.0779 17.9447 13.5879 16.6647L12.9979 16.1347C12.912 16.0682 12.8065 16.0321 12.6979 16.0321C12.5893 16.0321 12.4838 16.0682 12.3979 16.1347C11.6279 16.8947 10.3079 18.0347 9.01792 19.1347C7.38792 20.5047 5.81792 21.7647 5.53792 21.9547L5.43792 22.0347L5.24792 21.8347C4.91792 21.5447 4.16792 20.8847 3.46792 20.2047C2.98411 19.7782 2.53904 19.3097 2.13792 18.8047C2.18216 18.7096 2.23576 18.6191 2.29792 18.5347C2.92919 17.8682 3.59688 17.2373 4.29792 16.6447C5.99792 15.0047 8.16792 13.2147 8.16792 13.2147C8.2294 13.1631 8.27909 13.0989 8.31359 13.0264C8.3481 12.9539 8.36663 12.8749 8.36792 12.7947C8.37319 12.7149 8.36067 12.6349 8.33127 12.5605C8.30187 12.4862 8.25632 12.4193 8.19792 12.3647C8.19792 12.3647 5.99792 10.1947 4.27792 8.62465C3.45792 7.86465 2.76792 7.23465 2.49792 7.00465C2.17771 6.76527 1.87679 6.50113 1.59792 6.21465C1.00792 5.62465 1.10792 5.77465 1.46792 5.35465C1.69792 5.08465 1.96792 4.84465 2.10792 4.68465C3.09897 3.76113 4.16236 2.91844 5.28792 2.16465C5.42989 2.25719 5.56676 2.35733 5.69792 2.46465C7.43792 3.85465 11.1079 7.78465 12.3779 9.00465C12.4319 9.05999 12.4965 9.10396 12.5678 9.13398C12.639 9.164 12.7156 9.17947 12.7929 9.17947C12.8703 9.17947 12.9468 9.164 13.0181 9.13398C13.0893 9.10396 13.1539 9.05999 13.2079 9.00465C13.2779 8.93465 13.4179 8.77465 13.6079 8.54465C14.3179 7.69465 15.8179 5.84465 17.2179 4.25465L19.5279 1.94465H19.6179C20.7061 2.5574 21.7138 3.30313 22.6179 4.16465C22.7633 4.30296 22.9002 4.44989 23.0279 4.60465C22.8439 4.98365 22.6369 5.35101 22.4079 5.70465C22.1391 6.12085 21.8382 6.51539 21.5079 6.88465L17.3979 11.6347C17.3288 11.7174 17.2909 11.8218 17.2909 11.9297C17.2909 12.0375 17.3288 12.1419 17.3979 12.2247C17.566 12.4574 17.7462 12.681 17.9379 12.8947C19.0879 14.2247 21.7079 17.0847 22.7279 18.4047C22.9079 18.6347 22.9779 18.9147 23.0679 18.9147C23.0799 18.9979 23.1185 19.0751 23.1779 19.1347C23.2105 19.1679 23.2494 19.1943 23.2923 19.2124C23.3353 19.2304 23.3814 19.2397 23.4279 19.2397C23.4745 19.2397 23.5206 19.2304 23.5635 19.2124C23.6064 19.1943 23.6453 19.1679 23.6779 19.1347C23.736 19.051 23.7671 18.9515 23.7671 18.8497C23.7671 18.7478 23.736 18.6483 23.6779 18.5647C23.3773 18.0882 23.0431 17.6337 22.6779 17.2047C21.4179 15.6747 19.3379 13.3447 18.4479 12.2747L18.1979 12.0047L22.1979 7.52465C22.5543 7.12154 22.8817 6.69381 23.1779 6.24465Z" fill="black"/>
</g>
<defs>
<clipPath id="clip0_2006_341">
<rect width="24" height="24" fill="white"/>
</clipPath>
</defs>
</svg>
