<svg width="24" height="24" viewBox="0 0 24 24" fill="none" xmlns="http://www.w3.org/2000/svg">
<path fill-rule="evenodd" clip-rule="evenodd" d="M23.8978 11.5263C23.2852 10.3977 22.4387 9.41327 21.4149 8.63837C18.716 6.15555 13.5881 2.48514 12.4817 1.59452C12.3051 1.47923 12.0931 1.43044 11.8836 1.45682C11.6744 1.48323 11.4811 1.5831 11.3385 1.73865C11.1959 1.89419 11.1133 2.09531 11.1052 2.30616C11.0971 2.517 11.1641 2.7239 11.2942 2.88995C12.4007 4.02347 17.6635 9.3131 19.9304 11.796C17.2318 14.2252 10.5655 19.6768 9.40502 20.4325C9.20927 20.5772 9.07319 20.7884 9.02216 21.0262C8.97113 21.2644 9.00893 21.5128 9.12827 21.725C9.24761 21.9372 9.44039 22.0984 9.67016 22.1783C9.9002 22.2585 10.1513 22.2518 10.3768 22.1597C11.5102 21.593 17.5285 17.7876 20.9292 15.2777C21.7481 14.6764 22.5238 14.0181 23.2501 13.3075C23.5034 13.0923 23.6961 12.8147 23.8095 12.5026C23.9232 12.1902 23.9534 11.8538 23.8978 11.5263Z" fill="black"/>
</svg>
