<svg width="24" height="24" viewBox="0 0 24 24" fill="none" xmlns="http://www.w3.org/2000/svg">
<path d="M7.2795 3.64319C5.7992 4.84215 4.4839 6.23149 3.3677 7.77512C3.1076 8.15529 2.4873 8.98568 1.847 9.77605C1.3568 10.3663 0.8465 10.9366 0.5264 11.2767C0.4263 11.3768 0.266201 11.4368 0.286301 11.4868C0.196401 11.5078 0.1176 11.5615 0.0653 11.6375C0.013 11.7134 -0.00900002 11.8062 0.00349998 11.8976C0.016 11.989 0.0621994 12.0724 0.132999 12.1315C0.203799 12.1906 0.294099 12.2212 0.386299 12.2172C0.777399 12.0409 1.1205 11.7732 1.3868 11.4368C2.3206 10.4176 3.1989 9.34889 4.018 8.23533C5.1156 6.78519 6.3969 5.4837 7.8298 4.36353C9.0203 3.43309 10.1408 2.71276 10.7611 2.77279C10.8312 2.77279 10.8612 2.86283 10.9112 2.94287C10.9915 3.11467 11.0486 3.29632 11.0813 3.48312C11.2094 4.55891 11.2295 5.64483 11.1413 6.72463C11.1149 6.9272 11.1149 7.13234 11.1413 7.33491C11.1558 7.44436 11.204 7.54656 11.2794 7.62727C11.3547 7.70798 11.4533 7.76316 11.5615 7.78512C11.8297 7.85179 12.1056 7.88207 12.3819 7.87516C12.9221 7.87516 13.5024 7.77512 13.9826 7.77512H19.7353C20.3649 7.73356 20.9966 7.73356 21.6262 7.77512C21.7515 7.77405 21.8755 7.80036 21.9895 7.85221C22.1036 7.90405 22.2049 7.98017 22.2865 8.07526C22.4408 8.38928 22.539 8.72787 22.5766 9.07572C22.5725 9.09889 22.5725 9.12259 22.5766 9.14575C22.7267 10.5764 23.8472 10.2963 23.8472 9.12574C23.8472 8.91565 23.7872 8.70555 23.7472 8.51546C23.6754 8.12589 23.5402 7.75074 23.347 7.40494C23.0789 6.99111 22.6582 6.69988 22.1765 6.59457C21.3655 6.5006 20.5463 6.5006 19.7353 6.59457L14.0226 6.64459C13.5424 6.64459 12.9522 6.75464 12.4119 6.77465H12.2418C12.2918 5.66604 12.2517 4.55521 12.1218 3.4531C11.9417 2.45264 11.4915 1.83235 10.8512 1.78233C10.2109 1.7323 8.7002 2.48265 7.2795 3.64319Z" fill="black"/>
<path d="M15.023 18.37L15.7334 18.6101C16.5438 19.0904 16.7338 17.6797 15.9935 17.4596C14.0226 16.8093 11.5614 16.0189 11.4914 16.0189C11.3787 16.0144 11.2675 16.0459 11.174 16.1089C11.0804 16.1718 11.0094 16.263 10.9712 16.3691C10.9147 16.5506 10.8844 16.7393 10.8811 16.9294C10.8811 17.8098 10.9511 19.8707 10.8211 20.7211L10.651 21.3314C10.4209 21.4014 10.1308 21.2414 9.8406 21.0813C9.4893 20.8896 9.1546 20.6687 8.8402 20.421C7.9197 19.6506 6.9693 18.8803 6.0589 18.0799C5.4486 17.5496 4.8583 17.0094 4.3081 16.4391L2.5672 14.5983L0.896501 12.8375C0.832901 12.7925 0.7554 12.7714 0.6778 12.778C0.6002 12.7846 0.527401 12.8184 0.472301 12.8735C0.417201 12.9286 0.383401 13.0014 0.376801 13.079C0.370201 13.1566 0.391199 13.2341 0.436199 13.2977L2.107 15.0185L3.8078 16.8993C4.3681 17.4996 4.9584 18.0599 5.5686 18.6201C6.4691 19.4405 7.4095 20.2409 8.3099 21.0313C8.7804 21.4597 9.3134 21.8139 9.8907 22.0818C10.2212 22.2273 10.5907 22.2589 10.9411 22.1718C11.1509 22.0988 11.3304 21.958 11.4514 21.7716C11.6357 21.4674 11.7486 21.1253 11.7815 20.7711C11.9316 19.9808 11.9016 18.1399 11.9416 17.1395C12.5819 17.4596 13.8425 17.9398 15.023 18.37Z" fill="black"/>
<path d="M22.7266 10.6564C22.4617 10.9869 22.1176 11.245 21.7262 11.4068C20.5632 11.7586 19.3476 11.9042 18.1345 11.837C17.7935 11.8432 17.4557 11.904 17.134 12.0171C16.9496 12.087 16.7944 12.2175 16.6938 12.3872C16.4426 12.8394 16.3182 13.3509 16.3337 13.8679C16.3636 14.4001 16.4543 14.9271 16.6038 15.4387C16.8706 16.6164 17.038 17.8145 17.104 19.0203C17.2541 19.2604 17.4842 19.1304 17.6443 19.1704C18.1125 19.1707 18.578 19.0999 19.0249 18.9603C19.4339 18.839 19.8195 18.6496 20.1654 18.4C20.9384 17.8291 21.6523 17.1822 22.2964 16.4691C22.7331 15.9651 23.103 15.4069 23.3969 14.8084C23.6797 14.1728 23.8652 13.4982 23.9472 12.8074C24.0176 12.1423 24.0176 11.4716 23.9472 10.8065C23.9332 10.6922 23.8802 10.5861 23.7971 10.5064C23.7171 10.3763 22.7166 10.4764 22.7266 10.6564ZM22.7266 12.6574C22.6599 13.213 22.5115 13.7558 22.2864 14.2681C22.0374 14.7643 21.7282 15.228 21.366 15.6488C20.7796 16.3022 20.1294 16.8954 19.4251 17.4196C19.2488 17.5522 19.0531 17.6569 18.8448 17.7297C18.52 17.8444 18.185 17.9282 17.8443 17.9798C18.0144 16.5392 17.4942 15.0985 17.5542 13.8779C17.6143 12.6574 17.6943 13.1176 18.4546 13.0476C19.4525 13.0005 20.4406 12.8291 21.396 12.5373C21.8869 12.3734 22.3444 12.1226 22.7466 11.797C22.7519 12.0877 22.7386 12.3784 22.7066 12.6674L22.7266 12.6574Z" fill="black"/>
</svg>
