<svg width="24" height="24" viewBox="0 0 24 24" fill="none" xmlns="http://www.w3.org/2000/svg">
<g clip-path="url(#clip0_2006_314)">
<path d="M8.61934 10.7472C8.9454 10.562 9.2304 10.3125 9.45704 10.0137C9.68367 9.71496 9.84721 9.37325 9.93772 9.00935C10.0297 8.66222 10.0506 8.30008 9.99926 7.94466C9.94788 7.58924 9.82523 7.24786 9.63869 6.941C9.45215 6.63414 9.20555 6.36811 8.91368 6.15888C8.62181 5.94965 8.29069 5.80153 7.94018 5.7234C7.52189 5.60766 7.08003 5.60766 6.66175 5.7234C6.2209 5.83756 5.81186 6.05071 5.46573 6.34665C5.1196 6.64259 4.84549 7.01353 4.66421 7.4313C4.46757 7.88195 4.40723 8.38034 4.49065 8.8649C4.57408 9.34947 4.7976 9.79899 5.13363 10.1579C5.58475 10.6029 6.15265 10.9111 6.77161 11.0468C7.40351 11.1726 8.05957 11.0662 8.61934 10.7472ZM5.62303 7.7509C5.72456 7.4565 5.89009 7.18827 6.10768 6.96549C6.32528 6.74271 6.58955 6.57092 6.88148 6.46249C7.22672 6.33735 7.60493 6.33735 7.95016 6.46249C8.19498 6.50462 8.4267 6.6029 8.62716 6.74961C8.82761 6.89633 8.99135 7.08749 9.10553 7.30811C9.21971 7.52873 9.28122 7.7728 9.28525 8.02117C9.28927 8.26955 9.23569 8.51549 9.12871 8.73969C9.05317 8.98734 8.92473 9.21564 8.75229 9.40878C8.57984 9.60192 8.3675 9.7553 8.12994 9.85831C7.76836 9.98484 7.3751 9.98835 7.01132 9.8683C6.61042 9.76872 6.24434 9.56151 5.95262 9.26903C5.76125 9.06996 5.63123 8.82001 5.5781 8.54903C5.52497 8.27806 5.55097 7.99751 5.65299 7.74091L5.62303 7.7509Z" fill="black"/>
<path d="M7.69047 17.1693C7.93807 17.2129 8.18834 17.2396 8.43955 17.2492C8.59444 17.2595 8.74994 17.2426 8.89899 17.1993C9.10576 17.1423 9.29036 17.0239 9.42834 16.8597C9.62512 16.6049 9.76786 16.3126 9.84782 16.0007C9.96767 15.6012 9.96767 15.1618 10.0875 14.7723C10.1198 14.6213 10.2047 14.4867 10.3272 14.3927C10.3823 14.3431 10.4473 14.3059 10.5179 14.2835C10.5886 14.2611 10.6632 14.2541 10.7367 14.2629C11.1992 14.4599 11.6813 14.6072 12.175 14.7023C12.453 14.6946 12.7232 14.608 12.954 14.4526C13.2936 14.1969 13.608 13.9093 13.8928 13.5937C14.087 13.4181 14.2673 13.2277 14.4322 13.0244C14.5504 12.8691 14.6292 12.6875 14.6619 12.4951C14.6889 12.3123 14.6647 12.1256 14.592 11.9557C14.4836 11.7038 14.3352 11.4711 14.1525 11.2666C13.9277 10.9986 13.7271 10.7112 13.5533 10.4076C13.4886 10.3198 13.445 10.2183 13.4259 10.1109C13.4069 10.0034 13.4128 9.8931 13.4434 9.78839C13.5391 9.59511 13.6753 9.42477 13.8429 9.289C14.0321 9.13368 14.2402 9.00281 14.4621 8.89948C14.6219 8.81958 14.8417 8.77963 15.0215 8.68974C15.1742 8.62365 15.3056 8.51647 15.401 8.38012C15.5265 8.20273 15.6055 7.99669 15.6307 7.78086C15.6609 7.5421 15.6609 7.3005 15.6307 7.06174L15.4909 6.21279C15.4909 6.01303 15.431 5.76334 15.381 5.54361C15.3559 5.41159 15.3122 5.2838 15.2512 5.16408C15.1466 4.96447 14.9777 4.80608 14.7718 4.71463C14.4741 4.60402 14.1603 4.54328 13.8429 4.53485C13.6196 4.51345 13.4025 4.44901 13.2037 4.34508C13.0237 4.27846 12.865 4.16461 12.7443 4.01549C12.6796 3.8663 12.6558 3.70264 12.6751 3.54121C12.6944 3.37979 12.7562 3.22637 12.8541 3.09662C13.0524 2.79252 13.1914 2.45363 13.2636 2.09785C13.2917 1.84681 13.2391 1.59335 13.1133 1.37425C12.9876 1.15515 12.7954 0.981797 12.5645 0.879348C12.1859 0.650927 11.7842 0.463434 11.366 0.320036C11.1276 0.227717 10.8682 0.203511 10.6169 0.250122C9.88777 0.469851 9.52821 1.24889 8.92895 1.60845C8.74687 1.72057 8.53168 1.76643 8.3197 1.73829C8.15134 1.72112 7.99166 1.65517 7.86026 1.54852C7.72054 1.42701 7.6082 1.27722 7.53067 1.10907C7.53067 0.989213 7.44078 0.73952 7.36088 0.579716C7.32596 0.475461 7.2639 0.382383 7.1811 0.310048C6.97169 0.162354 6.71757 0.0917667 6.46199 0.110294C5.87672 0.193273 5.30753 0.365039 4.77406 0.619667C4.56016 0.693704 4.37159 0.826802 4.23018 1.00356C4.08878 1.18031 4.00032 1.3935 3.97505 1.61844C3.96676 2.04495 4.01036 2.47089 4.10489 2.88688C4.14869 3.02853 4.15794 3.1786 4.13188 3.32456C4.10581 3.47051 4.04519 3.60811 3.95507 3.72585C3.66543 4.03546 3.33583 3.94558 3.01623 3.8457C2.6957 3.72273 2.35949 3.6454 2.01745 3.61598C1.86072 3.61442 1.70581 3.64977 1.56527 3.71917C1.42472 3.78858 1.30249 3.89009 1.20845 4.01549C0.825811 4.4498 0.539838 4.96046 0.369482 5.51365C0.28934 5.73389 0.255943 5.96841 0.27142 6.20227C0.286896 6.43614 0.350905 6.66421 0.459371 6.87198C0.798953 7.38135 1.33829 7.65102 1.68786 8.11045C1.79171 8.2483 1.86029 8.40946 1.88761 8.57987C1.90688 8.68766 1.90161 8.7984 1.87222 8.90387C1.84283 9.00934 1.79005 9.10684 1.71782 9.18912C1.40779 9.51325 1.07394 9.81372 0.719051 10.088C0.375344 10.3581 0.129741 10.7336 0.0199117 11.1567C-0.0249282 11.4098 0.0063559 11.6705 0.109801 11.9058C0.307788 12.2772 0.564066 12.6144 0.868867 12.9046C1.18063 13.318 1.51401 13.7148 1.86764 14.0931C2.10548 14.3269 2.40831 14.4835 2.73657 14.5425C3.32242 14.4873 3.90127 14.3736 4.46444 14.203C4.58115 14.1641 4.7073 14.1641 4.824 14.203C4.88688 14.2379 4.94107 14.2866 4.98257 14.3454C5.02407 14.4042 5.0518 14.4716 5.06371 14.5425C5.09824 15.0472 5.20243 15.5446 5.37332 16.0207C5.58537 16.3661 5.90456 16.6327 6.28221 16.7798C6.73291 16.9697 7.20625 17.1006 7.69047 17.1693ZM6.13239 14.0531C5.98797 13.7244 5.73376 13.456 5.41328 13.2941C5.10621 13.1348 4.75595 13.0787 4.4145 13.1343C3.91512 13.2042 3.41573 13.5338 2.91635 13.4938C2.78651 13.4938 2.65667 13.344 2.51684 13.2042C2.16727 12.8646 1.83768 12.4152 1.64791 12.2054C1.47948 12.0435 1.32262 11.8699 1.17849 11.6861C1.09858 11.5662 1.0087 11.4463 1.03866 11.3265C1.113 11.0425 1.28662 10.7944 1.52806 10.6274C1.89226 10.3644 2.22711 10.063 2.52683 9.72846C2.67579 9.54502 2.78108 9.3301 2.83472 9.09996C2.88836 8.86982 2.88895 8.6305 2.83645 8.40009C2.78354 8.08477 2.64928 7.78871 2.44693 7.54115C2.01745 7.13166 1.48811 6.89195 1.15851 6.40255C1.0087 6.19281 1.09858 5.84324 1.21844 5.50366C1.34002 5.14042 1.5261 4.80208 1.76776 4.50489C1.92756 4.3351 2.12732 4.38503 2.33706 4.43497C2.68652 4.557 3.0482 4.64072 3.41573 4.68467C3.61422 4.69487 3.81235 4.65866 3.9944 4.57891C4.17644 4.49916 4.33738 4.37806 4.46444 4.22523C4.60626 4.06105 4.71021 3.86767 4.76889 3.65881C4.82758 3.44995 4.83958 3.23073 4.80403 3.01672C4.69728 2.58463 4.63371 2.143 4.61426 1.69834C4.62561 1.58307 4.66907 1.4733 4.73969 1.38149C4.81031 1.28968 4.90527 1.21952 5.01377 1.17898C5.4546 1.01547 5.90919 0.891795 6.3721 0.809434C6.48315 0.778312 6.60062 0.778312 6.71168 0.809434C6.72677 0.985783 6.78139 1.15647 6.87148 1.30882C6.98468 1.58656 7.16277 1.83315 7.39084 2.02793C7.62643 2.23353 7.91909 2.36244 8.22981 2.39748C8.61059 2.46203 9.0018 2.38379 9.32846 2.17775C9.8678 1.84816 10.1774 1.12904 10.8366 0.949262C10.9565 0.949262 11.1762 1.02916 11.4059 1.12904C11.6516 1.23724 11.8887 1.36413 12.115 1.50857C12.3348 1.65839 12.4346 1.76825 12.4147 1.91807C12.3063 2.26814 12.1554 2.60358 11.9652 2.91684C11.8367 3.15281 11.7694 3.41721 11.7694 3.68589C11.7694 3.95458 11.8367 4.21898 11.9652 4.45495C12.1177 4.71433 12.33 4.93349 12.5845 5.09416C12.9352 5.30795 13.3262 5.44733 13.733 5.50366L14.3723 5.61352L14.5221 6.4425L14.6219 7.19158C14.6322 7.33122 14.6322 7.47142 14.6219 7.61107C14.6172 7.6813 14.5967 7.74957 14.562 7.81082L14.0027 8.01057C13.6363 8.17474 13.2989 8.39737 13.0039 8.66976C12.7879 8.87385 12.6088 9.11376 12.4746 9.37889C12.3833 9.58665 12.3361 9.81113 12.3361 10.0381C12.3361 10.265 12.3833 10.4895 12.4746 10.6973C12.6813 11.1662 12.9537 11.6034 13.2836 11.9957L13.5433 12.3952L13.1238 12.8346C12.964 12.9845 12.7642 13.2142 12.5445 13.4039C12.3248 13.5937 12.3248 13.6137 12.1949 13.6137C11.9473 13.5855 11.7087 13.5037 11.4958 13.374C11.2199 13.2458 10.921 13.1745 10.6169 13.1642C10.2525 13.175 9.9017 13.3048 9.6181 13.5338C9.37175 13.716 9.17864 13.9609 9.05879 14.2429C8.91836 14.7283 8.80828 15.222 8.7292 15.7211C8.67781 15.8628 8.61432 15.9998 8.53943 16.1306L7.85028 16.0007C7.54228 15.9699 7.23793 15.9097 6.9414 15.821C6.74385 15.7856 6.56614 15.679 6.44201 15.5213C6.35267 15.2954 6.30528 15.0551 6.30218 14.8122C6.28058 14.5526 6.22345 14.2972 6.13239 14.0531Z" fill="black"/>
<path d="M15.7705 12.3652C16.1397 12.6182 16.4388 12.9607 16.6396 13.3607C16.8405 13.7607 16.9366 14.2051 16.9191 14.6524C16.9195 14.9934 16.8586 15.3317 16.7393 15.6512C16.5985 16.1161 16.2932 16.5138 15.8804 16.7698C15.4354 17.0345 14.9174 17.15 14.4022 17.0994C14.158 17.1013 13.9178 17.0374 13.7069 16.9144C13.496 16.7914 13.3221 16.6137 13.2037 16.4002C13.1732 16.3142 13.1098 16.2437 13.0274 16.2044C12.9449 16.165 12.8503 16.16 12.7642 16.1905C12.6781 16.221 12.6076 16.2844 12.5683 16.3668C12.529 16.4492 12.524 16.5439 12.5545 16.63C12.6593 16.9233 12.8313 17.1881 13.0568 17.4032C13.2822 17.6182 13.5548 17.7776 13.8529 17.8684C14.7015 18.1528 15.6266 18.1028 16.4397 17.7286C16.9967 17.4214 17.4385 16.9411 17.6981 16.3603C17.9535 15.8046 18.0569 15.1912 17.9978 14.5825C17.9423 13.9874 17.7275 13.4183 17.376 12.935C17.0245 12.4517 16.5492 12.072 16.0002 11.8359C15.9651 11.8117 15.9252 11.7953 15.8832 11.7877C15.8411 11.7802 15.798 11.7818 15.7567 11.7922C15.7153 11.8027 15.6767 11.8219 15.6433 11.8486C15.61 11.8752 15.5827 11.9087 15.5634 11.9467C15.544 11.9847 15.533 12.0264 15.531 12.069C15.5291 12.1117 15.5363 12.1542 15.5521 12.1938C15.5679 12.2335 15.592 12.2692 15.6228 12.2988C15.6536 12.3284 15.6903 12.351 15.7305 12.3652H15.7705Z" fill="black"/>
<path d="M22.2226 16.1406C22.6762 15.9326 23.1106 15.6853 23.521 15.4015C23.6948 15.2156 23.8266 14.9945 23.9076 14.7533C23.9886 14.5121 24.0168 14.2563 23.9905 14.0032C23.8549 13.0399 23.5143 12.1169 22.9917 11.2965C22.8483 11.0334 22.6242 10.8234 22.3525 10.6973C21.981 10.5524 21.5813 10.4943 21.1839 10.5275C20.9932 10.5565 20.7984 10.541 20.6147 10.482C20.431 10.4231 20.2635 10.3224 20.1252 10.1879C20.0673 10.1219 20.0254 10.0433 20.0029 9.95842C19.9804 9.87352 19.9778 9.78455 19.9954 9.69849C20.092 9.26998 20.1654 8.83654 20.2151 8.40009C20.2191 8.09704 20.1505 7.79745 20.0149 7.52638C19.8794 7.2553 19.6809 7.02063 19.4361 6.84201C18.7523 6.40429 17.969 6.14661 17.1589 6.09293C17.1195 6.08732 17.0793 6.08961 17.0408 6.09968C17.0023 6.10974 16.9662 6.12738 16.9346 6.15155C16.903 6.17573 16.8765 6.20596 16.8567 6.24048C16.8369 6.275 16.8242 6.31312 16.8193 6.35261C16.8137 6.39201 16.816 6.43213 16.826 6.47063C16.8361 6.50913 16.8537 6.54525 16.8779 6.57686C16.9021 6.60847 16.9323 6.63495 16.9668 6.65475C17.0014 6.67455 17.0395 6.68728 17.079 6.69219C17.7711 6.74737 18.4379 6.97764 19.0166 7.36137C19.1685 7.4792 19.291 7.6308 19.3742 7.80416C19.4574 7.97752 19.4991 8.16787 19.496 8.36014C19.496 8.83955 19.2163 9.35891 19.2263 9.83832C19.2267 10.1429 19.3366 10.4371 19.5359 10.6673C19.7017 10.882 19.9226 11.0477 20.1752 11.1467C20.5399 11.279 20.9258 11.3433 21.3138 11.3365C21.6633 11.3365 22.0129 11.3365 22.2226 11.706C22.5849 12.3225 22.8447 12.9938 22.9917 13.6936C23.0516 14.0731 23.0716 14.4427 22.8419 14.6923C22.6122 14.942 21.6933 15.1917 21.2638 15.5413C21.0475 15.7079 20.8957 15.9444 20.8343 16.2105C20.7905 16.4004 20.792 16.5979 20.8389 16.7871C20.8857 16.9763 20.9766 17.1517 21.104 17.2991C21.309 17.5249 21.5366 17.729 21.7832 17.9084C21.923 18.0083 22.0728 18.0882 22.1128 18.218L21.8831 18.7474C21.6089 19.2046 21.3122 19.6479 20.9941 20.0757C20.8368 20.3037 20.6485 20.5087 20.4348 20.685L20.0953 20.5751C19.5967 20.2757 19.0758 20.0153 18.5372 19.7961C18.3454 19.7356 18.1423 19.7194 17.9433 19.7488C17.7444 19.7782 17.5547 19.8524 17.3886 19.9659C17.1268 20.142 16.9193 20.3875 16.7893 20.675C16.6461 21.1029 16.549 21.5448 16.4997 21.9934C16.4997 22.2231 16.4298 22.4428 16.1901 22.5127C15.9309 22.581 15.6672 22.631 15.401 22.6625C14.9716 22.7125 14.5321 22.7225 14.0926 22.7624L13.5433 22.8423C13.4006 22.6434 13.2956 22.42 13.2337 22.1831C13.117 21.7883 12.9456 21.4117 12.7243 21.0645C12.6 20.8871 12.4414 20.7365 12.2578 20.6215C12.0743 20.5066 11.8695 20.4297 11.6556 20.3953C11.351 20.3366 11.0353 20.3898 10.7667 20.5451C10.4446 20.7608 10.1695 21.0394 9.95772 21.3641C9.76796 21.6038 9.59817 21.8835 9.21863 21.7337C9.0172 21.643 8.82346 21.5361 8.63935 21.4141C8.14995 21.0845 7.71049 20.675 7.23108 20.3554C7.09125 20.2655 6.86153 20.1456 6.67177 20.0158C6.59792 19.9723 6.53343 19.9146 6.482 19.846C6.39211 19.6363 6.58188 19.3466 6.77165 19.067C6.96518 18.7646 7.21632 18.5033 7.51074 18.2979C7.54973 18.2752 7.58381 18.245 7.61101 18.2091C7.6382 18.1731 7.65795 18.132 7.6691 18.0883C7.68026 18.0446 7.6826 17.9992 7.67599 17.9545C7.66938 17.9099 7.65394 17.8671 7.63059 17.8285C7.60889 17.7898 7.57963 17.7559 7.54453 17.7289C7.50944 17.7018 7.46925 17.6821 7.42636 17.6709C7.38346 17.6597 7.33876 17.6573 7.29491 17.6637C7.25106 17.6702 7.20897 17.6855 7.17115 17.7086C6.69335 18.0166 6.29611 18.4344 6.01258 18.9271C5.87946 19.1048 5.78867 19.3105 5.74713 19.5286C5.70559 19.7467 5.71439 19.9714 5.77287 20.1856C5.8487 20.3379 5.95795 20.471 6.09248 20.5751C6.30222 20.7549 6.60185 20.9147 6.76166 21.0345C7.24107 21.3641 7.66055 21.7936 8.13996 22.1232C8.36544 22.2915 8.6102 22.4324 8.86906 22.5427C9.14149 22.6792 9.45541 22.7077 9.74798 22.6226C10.1519 22.4747 10.5006 22.2062 10.7468 21.8535C10.9465 21.5939 11.1263 21.2742 11.5058 21.3442C11.5993 21.3623 11.6881 21.3991 11.767 21.4522C11.846 21.5054 11.9134 21.574 11.9653 21.6538C12.1527 22.0011 12.297 22.3701 12.3947 22.7524C12.5018 23.1092 12.6937 23.4348 12.954 23.7013C13.0753 23.8056 13.2247 23.8716 13.3835 23.891C13.6512 23.8986 13.919 23.8786 14.1825 23.8311C14.642 23.8311 15.0814 23.8311 15.5309 23.7612C15.8675 23.7343 16.2015 23.6809 16.5296 23.6014C16.8662 23.5253 17.1621 23.3257 17.3586 23.0421C17.5638 22.6733 17.6865 22.2644 17.7182 21.8435C17.7681 21.494 17.7781 21.1144 18.0877 20.9047C18.1976 20.8248 18.3274 20.9047 18.4673 20.9546C18.9267 21.1444 19.3961 21.504 19.7257 21.6438C19.9657 21.7525 20.2223 21.82 20.4848 21.8435C20.665 21.8405 20.841 21.7887 20.9941 21.6937C21.3518 21.4362 21.6655 21.1226 21.923 20.7649C22.2826 20.2655 22.6022 19.6862 22.8419 19.2867C23.0158 19.0116 23.1376 18.7069 23.2014 18.3878C23.2401 18.1839 23.2229 17.9734 23.1515 17.7786C23.1063 17.6541 23.0386 17.5389 22.9517 17.439C22.7406 17.2053 22.5026 16.9975 22.2426 16.8197C22.1355 16.7535 22.038 16.6729 21.953 16.58C21.9272 16.5578 21.9066 16.5302 21.8928 16.4991C21.879 16.468 21.8722 16.4343 21.8731 16.4002C21.903 16.2704 22.0728 16.2205 22.2226 16.1406Z" fill="black"/>
</g>
<defs>
<clipPath id="clip0_2006_314">
<rect width="24" height="24" fill="white"/>
</clipPath>
</defs>
</svg>
